<svg width="256" height="180"
  xmlns="http://www.w3.org/2000/svg">
  <path d="m 221.67931,112.79008 18.64423,4.99571 -74.57687,19.9828 v -9.99138 z" style="fill:#c40027" />
  <path d="M 35.23722,71.510714 53.881419,66.51503 128.45824,86.497801 109.81405,91.493518 Z" style="fill:#c30027" />
  <path d="m 16.593023,117.87957 18.644197,-4.99571 55.932602,14.98709 v 9.9914 z" style="fill:#c40027" />
  <path d="M 35.23722,71.510714 V 45.213457 l 18.644199,4.995705 V 66.51503 Z" style="fill:#383880" />
  <path d="m 109.81405,40.141539 18.64419,-4.995706 v 25.054752 l -18.64419,4.995674 z" style="fill:#383880" />
  <path d="m 109.81403,167.57491 18.64421,-4.99571 V 86.497801 l -18.64419,4.995717 z" style="fill:#383880" />
  <path d="m 128.45824,162.5792 18.64424,4.99571 V 40.141539 l -18.64424,-4.995706 z" style="fill:#3fa144" />
  <path d="m 128.45824,35.145833 93.22107,-24.978519 18.64423,4.995717 -93.22106,24.978508 z" style="fill:#f1ab00" />
  <path d="M 128.45824,35.145833 109.81402,40.141539 16.593023,15.163031 35.237228,10.167335 Z" style="fill:#f1aa00" />
  <path d="m 16.593023,15.163031 93.221007,24.978508 2e-5,25.05472 -74.57683,-19.982802 v 26.297257 l 74.57683,19.982804 -2e-5,76.081392 -93.221007,-24.97847 v -24.71687 l 74.576799,19.98278 V 111.38991 L 16.593023,91.407113 Z" style="fill:#3fa244" />
  <path d="m 147.10248,167.57491 93.22106,-24.97849 v -24.81063 l -74.57687,19.9828 V 60.045267 L 240.32354,40.062463 V 15.163031 l -93.22106,24.978508 z" style="fill:#383880" />
  <path d="m 217.67375,66.546036 -17.42607,4.669019 v 38.361795 l 17.42607,-4.66904 V 82.149664 l -11.43086,3.063776 v -7.623449 l 11.43086,-3.062353 z m -5.43566,24.676981 v 7.527093 l -5.9952,1.60666 v -7.527086 z" style="fill:#c30027" />
  <path d="m 222.22084,65.327616 6.066,-1.625399 v 15.603959 l 6.066,-1.625367 V 62.07685 l 6.066,-1.625366 v 38.361557 l -6.066,1.625369 V 85.29767 l -12.132,3.250754 z" style="fill:#c40027" />
</svg>